<svg width="102" height="102" viewBox="0 0 102 102" fill="none" xmlns="http://www.w3.org/2000/svg">
<path d="M85.7318 16.2682C86.4667 15.5333 87.6611 15.5311 88.3684 16.2926C96.136 24.6554 100.887 35.399 101.828 46.8102C102.82 58.8476 99.5077 70.8466 92.4809 80.6704C85.4541 90.4943 75.1687 97.5055 63.4563 100.455C51.7438 103.405 39.3644 102.103 28.5225 96.7795C17.6806 91.4562 9.07991 82.4578 4.25181 71.3864C-0.576283 60.3151 -1.31835 47.8896 2.15774 36.3223C5.63383 24.7551 13.1025 14.797 23.2337 8.2211C32.8379 1.98736 44.2439 -0.823289 55.6108 0.208831C56.6459 0.302814 57.3745 1.24925 57.2425 2.28012C57.1104 3.311 56.1676 4.03567 55.1323 3.94473C44.65 3.02398 34.1393 5.62963 25.2828 11.3781C15.8992 17.4686 8.98173 26.6919 5.76216 37.4055C2.5426 48.1191 3.2299 59.6277 7.7017 69.882C12.1735 80.1363 20.1395 88.4706 30.1813 93.4011C40.2231 98.3316 51.6889 99.5381 62.537 96.8058C73.3851 94.0735 82.9115 87.5797 89.4197 78.4809C95.928 69.382 98.9957 58.2685 98.0767 47.1194C97.2093 36.5966 92.8436 26.6867 85.7051 18.9558C85 18.1922 84.9969 17.0031 85.7318 16.2682Z" fill="#F4BB28"/>
<path d="M49.4935 41.6788H49.3994C48.7089 41.6788 47.3908 43.1538 45.4449 46.104C43.4991 49.0542 41.7415 52.4123 40.1723 56.1785C42.1809 57.9988 43.1852 61.1686 43.1852 65.688C43.1852 70.2702 41.9298 75.072 39.4191 80.0935L37.4418 84.2363C36.3748 86.1194 35.5588 87.312 34.9938 87.8142C34.4289 88.3163 33.6129 88.5674 32.5458 88.5674C31.5415 88.5674 30.3803 88.0652 29.0621 87.0609C27.744 86.0566 27.0849 84.8326 27.0849 83.3889C27.0849 82.008 28.6228 77.0492 31.6984 68.5126C34.8369 59.976 37.5046 53.5108 39.7015 49.1169C33.9895 58.344 29.0621 62.9575 24.9194 62.9575C22.2831 62.9575 20.9649 61.5452 20.9649 58.7206C20.9649 55.8332 22.1261 52.5065 24.4486 48.7403C26.7711 44.9114 29.6271 41.616 33.0166 38.8542C36.4061 36.0295 39.4504 34.6172 42.1495 34.6172C45.4763 34.6172 47.1397 35.9982 47.1397 38.76C47.1397 39.3877 46.9514 39.7643 46.5748 39.8898L46.3864 39.7957C45.7588 38.4775 44.4406 37.8185 42.432 37.8185C40.4234 37.8185 38.2264 39.0425 35.8412 41.4905C33.456 43.8757 31.0394 47.1397 28.5914 51.2825C26.1434 55.4252 24.9194 58.3126 24.9194 59.9446C24.9194 60.7606 25.2332 61.1686 25.8609 61.1686C27.6184 61.1686 30.6314 58.4382 34.8997 52.9772C39.168 47.4535 41.8984 44.064 43.0911 42.8086C44.3464 41.4905 45.2252 40.8314 45.7274 40.8314C46.2923 40.8314 47.0455 40.9255 47.9871 41.1138C48.9914 41.3022 49.4935 41.4905 49.4935 41.6788ZM41.7729 64.2757C41.7729 61.3255 41.0197 59.0972 39.5132 57.5908C34.1778 71.5255 31.5101 80.5015 31.5101 84.5188C31.5101 85.3975 31.6984 85.8369 32.0751 85.8369C32.64 85.8369 33.6129 84.9582 34.9938 83.2006C39.5132 77.5514 41.7729 71.2431 41.7729 64.2757Z" fill="#F4BB28"/>
<path d="M87.3779 19.5526C87.3779 18.9877 86.5933 18.7052 85.0241 18.7052C81.2579 18.7052 77.2093 19.3957 72.8782 20.7766C68.5472 22.0948 64.8124 23.9465 61.6739 26.3317C58.5982 28.7169 57.0604 31.1022 57.0604 33.4874C57.0604 35.8098 59.7909 39.8271 65.2518 45.5391C70.7127 51.2511 73.4432 55.5508 73.4432 58.4382C73.4432 60.5095 72.4075 62.2357 70.3361 63.6166C68.2647 64.9975 65.7853 65.688 62.8979 65.688H60.5441C54.5182 65.688 50.3127 63.8363 47.9275 60.1329L48.1158 59.568C50.8149 60.8234 53.7022 61.4511 56.7779 61.4511C59.8536 61.4511 62.8979 60.8548 65.9109 59.6622C68.9866 58.4695 70.5244 57.0572 70.5244 55.4252C70.5244 54.4837 69.1749 52.5692 66.4758 49.6818C61.2659 44.2209 58.0019 40.5175 56.6838 38.5717C55.4284 36.6258 54.8007 34.3034 54.8007 31.6043C54.8007 24.6369 61.2973 19.4585 74.2906 16.0689C80.0653 14.7508 83.3607 14.0917 84.1767 14.0917C84.9927 14.0917 85.7459 14.1858 86.4364 14.3742L88.7902 16.8222C89.7946 17.952 90.3595 18.8935 90.485 19.6468C90.485 20.9649 88.7903 22.5342 85.4007 24.3545C82.0739 26.112 80.0339 26.9908 79.2807 26.9908L79.1866 26.52L83.9884 23.2246C86.2481 21.7182 87.3779 20.4942 87.3779 19.5526Z" fill="#F4BB28"/>
</svg>
